PathFileType	4	(X/Y/Z)	Patient4_TMGait_0pt4_02_right_07.trc.trc
DataRate	CameraRate	NumFrames	NumMarkers	Units	OrigDataRate	OrigDataStartFrame	OrigNumFrames
73.298429319372	73.298429319372	6	33	mm	73.298429319372	124	       141
Frame#	Time	Sacral			L.Shoulder			Chest			R.Shoulder			Neck			R.ASIS			L.ASIS			R.Thigh.Superior			R.Thigh.Lateral			R.Thigh.Inferior			R.Patella			L.Thigh.Superior			L.Thigh.Lateral			L.Thigh.Inferior			L.Patella			L.Shank.Superior			L.Shank.Lateral			L.Shank.Inferior			R.Shank.Superior			R.Shank.Lateral			R.Shank.Inferior			R.Heel			R.Midfoot.Superior			R.Midfoot.Lateral			R.Toe			L.Heel			L.Midfoot.Lateral			L.Midfoot.Superior			L.Toe			L.Elbow			L.Wrist			R.Elbow			R.Wrist			
		X1	Y1	Z1	X2	Y2	Z2	X3	Y3	Z3	X4	Y4	Z4	X5	Y5	Z5	X6	Y6	Z6	X7	Y7	Z7	X8	Y8	Z8	X9	Y9	Z9	X10	Y10	Z10	X11	Y11	Z11	X12	Y12	Z12	X13	Y13	Z13	X14	Y14	Z14	X15	Y15	Z15	X16	Y16	Z16	X17	Y17	Z17	X18	Y18	Z18	X19	Y19	Z19	X20	Y20	Z20	X21	Y21	Z21	X22	Y22	Z22	X23	Y23	Z23	X24	Y24	Z24	X25	Y25	Z25	X26	Y26	Z26	X27	Y27	Z27	X28	Y28	Z28	X29	Y29	Z29	X30	Y30	Z30	X31	Y31	Z31	X32	Y32	Z32	X33	Y33	Z33	

124	10.418071428571	884.656699040641	1002.488689347884	431.208773751091	1087.170627531139	1425.866398839822	250.721469737594	1167.004037084574	1366.093928999139	426.785750544972	1059.185337865430	1444.679519583388	584.636063777403	1047.038816877335	1492.964772744688	402.155662115445	1104.722401449230	943.781596226192	569.874329655399	1112.171965288802	960.510061850708	293.439674157443	1166.398817423700	752.261011244810	547.743199820931	1099.770362542767	635.400626524298	612.614611748944	1187.339292948849	589.564105004085	537.461423063239	1206.589963374546	509.009457262485	548.945133049050	1113.328396718797	732.596127079686	317.345561112884	996.524059223995	636.534944833608	255.240654142825	1059.647308638666	543.912446104595	316.140470719306	1045.786911352223	477.303131853692	324.382760837009	1011.735910764377	411.395484584861	317.618907180497	906.031958006065	307.688864588065	272.067350820507	949.227564236587	190.865530080022	341.200859950751	1189.763164986395	420.726169658443	560.540978728897	1133.648641146826	309.756858806769	625.281463828089	1198.278941550830	221.091175991618	573.449730153583	1097.392553847433	44.337093535357	550.655339320690	1265.531780607825	104.490834690449	583.691071700858	1182.900741844228	39.132356034824	622.646045086371	1388.205027143777	58.500632710681	606.825613097249	813.032132140452	40.789939512120	393.550508888841	882.833026332291	35.307630300199	309.782107178248	967.902216266409	95.869112898227	331.844868529635	1094.804247105153	41.158895825687	298.454254026784	1153.239681414396	1093.053278732388	109.123354033375	1378.118291229727	956.171065928397	104.809869055054	922.362873502147	1128.907820037899	698.175902977666	929.796916357637	866.715465763953	706.443668958657	
125	10.431714285714	886.479160952914	1001.521390274828	434.278535335103	1086.178306476880	1425.458330755249	253.505324565677	1167.316392995464	1366.109052325767	429.186632206816	1059.748380833707	1443.960803335820	587.626527105386	1046.755447425421	1492.452951377088	405.133700578455	1107.589980785255	942.932090956174	571.659655246928	1113.662721628117	960.392629320866	295.458601154785	1169.245072359043	750.818637707272	548.444434173835	1101.480036830349	634.260914433888	612.691319188578	1188.391100257143	588.548473152009	536.962262198999	1206.120543240660	507.013171223656	547.554381387643	1114.237126587447	731.942427540200	318.334061107444	996.579098853514	636.391123302445	256.915880374885	1059.654939169823	543.265858183799	317.206787857413	1045.737383393764	476.092970520583	325.297804174500	1010.479035816065	410.623781685839	318.593299172369	903.209300775720	308.430435748462	273.094792828218	945.013611131450	190.640337482587	341.509065748406	1188.502567324910	418.030143939696	559.392507199950	1130.809836845427	308.011832345699	624.643472373140	1192.753309713607	217.986137002170	571.711801281230	1087.643365189727	43.381551332594	550.110828755195	1256.810235364258	101.414376605878	581.458133302011	1173.445212684333	37.926702767307	621.818756265320	1379.320960049858	53.930147588847	604.501832075652	807.505105789418	41.371034722565	393.433477205314	877.384979184212	35.489053211001	309.806254359586	962.612461091988	95.925442345836	331.782033817236	1089.403987090578	40.878782007834	298.376580025572	1150.688792386606	1091.216814653863	113.463452987536	1369.468317650153	944.740157737705	106.957784604455	928.171565141457	1125.890191118398	702.542396482179	943.032279967903	864.051573203213	711.593483668985	
126	10.445357142857	888.323301487121	1000.825904805026	437.453799374890	1085.197355635964	1425.354773900478	256.446860411804	1167.709711862897	1366.341157638283	431.678015064519	1060.505627245617	1443.427096031764	590.791041960562	1046.558514755481	1492.197947145367	408.309492149268	1110.514969725898	942.375238509014	573.458313795259	1115.134984424932	960.480934818901	297.547681409123	1171.876892023073	749.578241434686	549.010855796161	1103.262807641789	633.565042647776	613.069181101383	1189.206907603080	587.821351955833	536.501334980895	1205.437487219088	505.413089325282	546.489526090775	1115.426818258034	731.499689798786	319.474183892009	997.143692315193	636.278296554190	258.721249877704	1060.403027079312	542.718183468425	318.379591127999	1046.492505111746	474.829419713036	326.190623963229	1009.826581366418	409.852575299298	319.584660283689	900.793912188865	309.405637348193	274.217781252558	941.045792375502	190.565892094580	341.821791924630	1187.294561391249	415.895602912774	558.688849424912	1128.471514102526	306.725178055455	624.589818589822	1187.926187263052	215.569363232227	570.496728507016	1079.201564374987	42.678590779916	550.031294265055	1249.141320575119	99.256009274128	579.865142948085	1165.304407098140	37.168243981283	621.455345522181	1371.603963282768	50.691050308542	602.757073515471	801.997780994460	42.330497046143	393.308390820695	871.953628020962	35.817949586565	309.834434236133	957.461117384442	96.038607377530	331.649260072605	1084.029740370254	40.559884561814	298.279090087167	1147.812493374352	1089.623306420499	118.003506542802	1359.490388863017	933.158718112646	109.166476469968	934.591551271715	1122.991671526912	707.100775324255	957.288379189081	861.692918536632	716.899885810572	
127	10.459000000000	890.158988739643	1000.452114553492	440.710315763341	1084.289324283765	1425.593956352851	259.518385254890	1168.187141601877	1366.803753222583	434.243137208729	1061.457234645983	1443.128222644952	594.085950373489	1046.465918118483	1492.233560655413	411.640849928383	1113.406257372857	942.160767547156	575.323505541397	1116.549054821036	960.797811758406	299.733430286723	1174.219555041243	748.637878639197	549.516557371466	1105.088485946141	633.316110543621	613.775877607542	1189.804579649654	587.405296786201	536.171083840248	1204.577851303302	504.236298676865	545.864149104233	1116.926607889853	731.318457855998	320.837491020545	998.358133354104	636.187529390917	260.638395855842	1062.086261035284	542.288346557072	319.642077405200	1048.243131978615	473.518652786462	326.987510374824	1009.937271294507	409.095673051151	320.531201237178	898.920369236028	310.680778229490	275.402625226080	937.424901597395	190.709646074320	342.093689151763	1186.111444074249	414.337571257860	558.446667543979	1126.537019762928	305.894854470718	625.042235458835	1183.736450619073	213.842222662384	569.781824112327	1072.020648023962	42.227008690207	550.270369366631	1242.484918034282	97.941382568550	578.884050190173	1158.391069137527	36.790637552334	621.447332994335	1364.975252132191	48.668330677642	601.606595803971	796.554746162245	43.819423194274	393.164048609688	866.561306855157	36.368339915231	309.857622325386	952.510851933011	96.229471569173	331.411183102227	1078.680018389515	40.208602836431	298.164970737808	1144.562775017809	1088.319536481005	122.713810315424	1348.141065583207	921.655859840446	111.468662385409	941.652967084658	1120.287200901219	711.818501120180	972.539575144169	859.760079100143	722.307251525091	
128	10.472642857143	891.961756026108	1000.410441518564	444.044374772673	1083.495292996902	1426.178106445397	262.691895947112	1168.741998469351	1367.486819286293	436.865062434616	1062.590205257625	1443.088778629443	597.467317699743	1046.479293219177	1492.561327033803	415.083861886297	1116.192881760182	942.303426227704	577.312000164637	1117.862881820337	961.343781835621	302.040844845705	1176.237374392563	748.047264166346	550.062975002644	1106.892956954100	633.459502047106	614.810051453073	1190.201944540721	587.263756659148	536.068035515222	1203.560780869143	503.446517416913	545.723319524751	1118.773848047262	731.436412517048	322.474864249365	1000.363096054253	636.100821336863	262.633703358386	1064.900515421189	541.988013393344	320.953887747771	1051.183366055528	472.168344665317	327.600432809157	1010.982068289706	408.364915051489	321.359608023170	897.744764492253	312.318972157300	276.603338128490	934.271552586389	191.143082162481	342.270097968295	1184.891119722364	413.301186519308	558.626872686189	1124.845302868388	305.465577065332	625.874699247869	1180.032899974434	212.727687676330	569.493417095030	1065.895680880258	41.997715630472	550.690782006468	1236.672453098315	97.314378651930	578.422200171119	1152.476470448635	36.701776014338	621.677345313282	1359.228710403081	47.633510856699	600.992372941109	791.244433982212	46.008602205411	392.982715964932	861.244720801636	37.236530358804	309.862304181732	947.835866421407	96.525098032798	331.030757696943	1073.350563307205	39.835365215306	298.040404753578	1140.876412426089	1087.325179663842	127.555521199186	1335.409618298901	910.452962189821	113.905570247812	949.371132869675	1117.833489099400	716.672109999818	988.781251768394	858.367842040075	727.760650953202	
129	10.486285714286	893.711110237085	1000.666234037503	447.472579625427	1082.825029656854	1427.068026142503	265.941840214394	1169.357665928236	1368.355282726692	439.526877835232	1063.881128201183	1443.301236258040	600.896690653471	1046.585660046281	1493.147760429523	418.598675576203	1118.830436148071	942.778935565148	579.470169981309	1119.035252250160	962.092201435551	304.487278818400	1177.925712567905	747.792188723245	550.771541696489	1108.557457314379	633.892154309002	616.146245836006	1190.392360638428	587.311762659902	536.283454672830	1202.375536237570	502.961344929785	546.044017515006	1121.016170403982	731.873090292850	324.406939958320	1003.289315594267	635.993729955077	264.660704872871	1069.022810868763	541.823645846600	322.258878514869	1055.493247898182	470.791824615542	327.945498704660	1013.133951006655	407.671876830546	321.998102247372	897.440703146261	314.376282009415	277.765784965029	931.723391062276	191.939573941487	342.294455103656	1183.548357823260	412.684076654682	559.151968808329	1123.211104046817	305.343923722894	626.942503607988	1176.623593835627	212.098420138546	569.527532477314	1060.540151391269	41.944211083075	551.178906096482	1231.470585444446	97.179873307362	578.349021551925	1147.266077328511	36.803873109946	622.035877694173	1354.100023521493	47.304344222802	600.808326930501	786.163369486667	49.085134014384	392.739725126394	856.059058690848	38.545015767710	309.830219574786	943.521334099023	96.961367681770	330.474196353384	1068.036114719008	39.452110264886	297.913832274777	1136.679189319591	1086.627114737204	132.482288163832	1321.321381426811	899.746091995323	116.524575755726	957.743265851052	1115.664186145993	721.648067478315	1006.024342634524	857.623592033240	733.204827575670	
